<svg xmlns="http://www.w3.org/2000/svg" width="24" height="24" viewBox="0 0 24 24">
  <defs>
    <radialGradient id="instagramGradient" cx="30%" cy="107%" r="150%">
      <stop offset="0%" style="stop-color:#FDF497" />
      <stop offset="5%" style="stop-color:#FDF497" />
      <stop offset="45%" style="stop-color:#FD5949" />
      <stop offset="60%" style="stop-color:#D6249F" />
      <stop offset="90%" style="stop-color:#285AEB" />
    </radialGradient>
  </defs>
  <path fill="url(#instagramGradient)"
    d="M12 2.16c3.2 0 3.58.01 4.85.07 1.17.05 1.8.25 2.23.42.56.21.96.47 1.38.9.42.42.69.82.9 1.38.16.42.36 1.06.42 2.23.05 1.27.07 1.65.07 4.85s-.01 3.58-.07 4.85c-.05 1.17-.25 1.8-.42 2.23-.21.56-.47.96-.9 1.38-.42.42-.82.69-1.38.9-.42.16-1.06.36-2.23.42-1.27.05-1.65.07-4.85.07s-3.58-.01-4.85-.07c-1.17-.05-1.8-.25-2.23-.42-.56-.21-.96-.47-1.38-.9-.42-.42-.69-.82-.9-1.38-.16-.42-.36-1.06-.42-2.23-.05-1.27-.07-1.65-.07-4.85s.01-3.58.07-4.85c.05-1.17.25-1.8.42-2.23.21-.56.47-.96.9-1.38.42-.42.82-.69 1.38-.9.42-.16 1.06-.36 2.23-.42 1.27-.05 1.65-.07 4.85-.07zM12 0C8.74 0 8.33.01 7.05.07c-1.28.06-2.15.27-2.91.57-.79.3-1.46.72-2.13 1.38C1.36 2.68.94 3.35.64 4.14.34 4.9.13 5.77.07 7.05.01 8.33 0 8.74 0 12s.01 3.67.07 4.95c.06 1.28.27 2.15.57 2.91.3.79.72 1.46 1.38 2.13.66.66 1.34 1.08 2.13 1.38.76.3 1.63.51 2.91.57 1.28.05 1.69.07 4.95.07s3.67-.01 4.95-.07c1.28-.06 2.15-.27 2.91-.57.79-.3 1.46-.72 2.13-1.38.66-.66 1.08-1.34 1.38-2.13.3-.76.51-1.63.57-2.91.05-1.28.07-1.69.07-4.95s-.01-3.67-.07-4.95c-.06-1.28-.27-2.15-.57-2.91-.3-.79-.72-1.46-1.38-2.13-.66-.66-1.34-1.08-2.13-1.38-.76-.3-1.63-.51-2.91-.57C15.67.01 15.26 0 12 0zm0 5.84c-3.4 0-6.16 2.76-6.16 6.16S8.6 18.16 12 18.16 18.16 15.4 18.16 12 15.4 5.84 12 5.84zM12 16c-2.21 0-4-1.79-4-4s1.79-4 4-4 4 1.79 4 4-1.79 4-4 4zm7.84-10.4c0 .79-.65 1.44-1.44 1.44-.79 0-1.44-.65-1.44-1.44 0-.79.65-1.44 1.44-1.44.79 0 1.44.65 1.44 1.44z" />
</svg>