<svg xmlns="http://www.w3.org/2000/svg" width="24" height="24" viewBox="0 0 24 24" fill="#0088cc">
  <path
    d="M12 2C6.48 2 2 6.48 2 12s4.48 10 10 10 10-4.48 10-10S17.52 2 12 2zm4.64 6.8c-.15 1.58-.8 5.42-1.13 7.19-.14.75-.42 1-.68 1.03-.58.05-1.02-.38-1.58-.75-.88-.58-1.38-.94-2.23-1.5-.99-.65-.35-1.01.22-1.59.15-.15 2.71-2.48 2.76-2.69.01-.03.01-.12-.05-.17-.05-.05-.14-.03-.19-.02-.09.02-1.42.91-4.02 2.66-.38.26-.73.39-1.04.38-.34 0-1-.19-1.48-.35-.6-.19-1.07-.3-1.02-.63.02-.18.26-.35.71-.53 2.8-1.22 4.67-2.03 5.61-2.42 2.67-1.11 3.22-1.3 3.58-1.31.08 0 .25.02.37.12.09.08.12.19.13.27.01.05.03.17.01.27z" />
</svg>