<svg xmlns="http://www.w3.org/2000/svg" width="24" height="24" viewBox="0 0 24 24" fill="#FF0000">
  <path
    d="M23.76 7.2s-.24-1.66-.95-2.39c-.91-.96-1.93-.96-2.4-1.02C17.05 3.5 12 3.5 12 3.5h-.01s-5.05 0-8.4.29c-.47.06-1.49.06-2.4 1.02C.48 5.54.24 7.2.24 7.2S0 9.18 0 11.16v1.86c0 1.98.24 3.96.24 3.96s.24 1.66.95 2.39c.91.96 2.1.93 2.64 1.03 1.92.18 8.17.24 8.17.24s5.05-.01 8.41-.31c.47-.05 1.49-.06 2.4-1.01.71-.73.95-2.39.95-2.39s.24-1.98.24-3.96v-1.86c0-1.98-.24-3.96-.24-3.96zM9.52 15.4V8.07L16 11.73l-6.48 3.67z" />
</svg>